<?xml version="1.0" encoding="UTF-8" standalone="no"?>
<!-- Created with Inkscape (http://www.inkscape.org/) -->

<svg
   width="210mm"
   height="297mm"
   viewBox="0 0 210 297"
   version="1.1"
   id="svg1"
   inkscape:version="1.3.2 (091e20e, 2023-11-25)"
   sodipodi:docname="A4-B6JISx2.svg"
   xmlns:inkscape="http://www.inkscape.org/namespaces/inkscape"
   xmlns:sodipodi="http://sodipodi.sourceforge.net/DTD/sodipodi-0.dtd"
   xmlns="http://www.w3.org/2000/svg"
   xmlns:svg="http://www.w3.org/2000/svg">
  <sodipodi:namedview
     id="namedview1"
     pagecolor="#ffffff"
     bordercolor="#666666"
     borderopacity="1.0"
     inkscape:showpageshadow="2"
     inkscape:pageopacity="0.0"
     inkscape:pagecheckerboard="0"
     inkscape:deskcolor="#d1d1d1"
     inkscape:document-units="mm"
     inkscape:zoom="0.58707211"
     inkscape:cx="396.03312"
     inkscape:cy="561.25984"
     inkscape:window-width="1440"
     inkscape:window-height="872"
     inkscape:window-x="0"
     inkscape:window-y="28"
     inkscape:window-maximized="0"
     inkscape:current-layer="layer1" />
  <defs
     id="defs1" />
  <g
     inkscape:label="layouts"
     inkscape:groupmode="layer"
     id="layer1"
     style="display:none">
    <rect
       style="fill:#dcdcdc;stroke-width:1.38141;stroke-linecap:round;stroke-linejoin:round"
       id="rect1"
       width="128"
       height="182"
       x="155"
       y="-196"
       inkscape:label="layout-1"
       transform="rotate(90)" />
    <rect
       style="fill:#dcdcdc;stroke-width:1.38141;stroke-linecap:round;stroke-linejoin:round"
       id="rect2"
       width="128"
       height="182"
       x="13.999998"
       y="-196"
       inkscape:label="layout-0"
       transform="rotate(90)" />
  </g>
  <g
     inkscape:groupmode="layer"
     id="layer3"
     inkscape:label="tombo">
    <path
       id="rect3-7-6"
       style="fill:none;fill-opacity:1;stroke:#000000;stroke-width:0.1;stroke-linecap:round;stroke-dasharray:none;stroke-opacity:1"
       d="m 4,142.00024 7.00024,8e-5 -1.5e-4,9.99983 M 4,145.00058 l 10.00042,-2.6e-4 v 6.99983 M 14.0005,4 l -8e-5,7.000244 -9.99983,-1.55e-4 M 11.00016,4 11.00042,14.000423 H 4.00059 M 206.00042,142 l -7.00024,8e-5 1.5e-4,9.99983 m 7.00009,-6.99957 L 196,145.00008 v 6.99983 M 195.99992,3.9997559 196,11 l 9.99983,-1.55e-4 M 199.00026,3.9997559 199,14.000179 h 6.99983" />
    <path
       id="rect3-7-6-1"
       style="fill:none;fill-opacity:1;stroke:#000000;stroke-width:0.1;stroke-linecap:round;stroke-dasharray:none;stroke-opacity:1"
       d="m 4,283.00048 7.00024,8e-5 -1.5e-4,9.99983 M 4,286.00082 l 10.00042,-2.6e-4 v 6.99983 m 8e-5,-148.00014 -8e-5,7.00024 -9.99983,-1.6e-4 m 6.99957,-7.00008 2.6e-4,10.00042 H 4.00059 m 201.99983,127.99957 -7.00024,8e-5 1.5e-4,9.99983 m 7.00009,-6.99957 L 196,286.00032 v 6.99983 M 195.99992,145 l 8e-5,7.00025 9.99983,-1.6e-4 M 199.00026,145 199,155.00042 h 6.99983" />
  </g>
</svg>
