<?xml version="1.0" encoding="UTF-8" standalone="no"?>
<!-- Created with Inkscape (http://www.inkscape.org/) -->

<svg
   width="148mm"
   height="100mm"
   viewBox="0 0 148 100"
   version="1.1"
   id="svg1"
   inkscape:version="1.3.2 (091e20e, 2023-11-25)"
   sodipodi:docname="PC-B6JISx1.svg"
   xmlns:inkscape="http://www.inkscape.org/namespaces/inkscape"
   xmlns:sodipodi="http://sodipodi.sourceforge.net/DTD/sodipodi-0.dtd"
   xmlns="http://www.w3.org/2000/svg"
   xmlns:svg="http://www.w3.org/2000/svg">
  <sodipodi:namedview
     id="namedview1"
     pagecolor="#ffffff"
     bordercolor="#666666"
     borderopacity="1.0"
     inkscape:showpageshadow="2"
     inkscape:pageopacity="0.0"
     inkscape:pagecheckerboard="0"
     inkscape:deskcolor="#d1d1d1"
     inkscape:document-units="mm"
     inkscape:zoom="1.3658221"
     inkscape:cx="279.68504"
     inkscape:cy="189.26331"
     inkscape:window-width="1440"
     inkscape:window-height="872"
     inkscape:window-x="0"
     inkscape:window-y="28"
     inkscape:window-maximized="0"
     inkscape:current-layer="layer1"
     showgrid="false" />
  <defs
     id="defs1">
    <rect
       x="41.417212"
       y="81.798994"
       width="453.51847"
       height="205.0152"
       id="rect2" />
  </defs>
  <g
     inkscape:label="layouts"
     inkscape:groupmode="layer"
     id="layer1"
     style="display:none">
    <rect
       style="fill:#ffaaaa;stroke-width:0.505319;stroke-linejoin:round;paint-order:stroke fill markers"
       id="rect1"
       width="100"
       height="142.1875"
       x="-3.5527137e-15"
       y="-145.47322"
       inkscape:label="layout-0"
       transform="rotate(90)" />
    <g
       id="text3"
       style="font-size:10.5833px;line-height:1.25;stroke-width:0.264583"
       aria-label=" ※ハガキサイズに収める&#10;　ため縮小してある">
      <path
         d="m 27.763723,46.581038 -0.537433,0.537433 -3.513986,-3.513986 -3.524322,3.513986 -0.537433,-0.537433 3.513986,-3.513986 -3.513986,-3.513986 0.537433,-0.542601 3.513986,3.513986 3.524322,-3.513986 0.537433,0.542601 -3.524321,3.513986 z m -4.030749,-7.239845 q 0.248046,0 0.423746,0.175699 0.180866,0.170532 0.180866,0.413411 0,0.248046 -0.180866,0.423745 -0.1757,0.170532 -0.423746,0.170532 -0.242878,0 -0.418578,-0.170532 -0.175699,-0.175699 -0.175699,-0.423745 0,-0.242879 0.175699,-0.413411 0.1757,-0.175699 0.418578,-0.175699 z m 3.110911,3.100576 q 0.248047,0 0.418578,0.175699 0.1757,0.170532 0.1757,0.413411 0,0.248046 -0.1757,0.423745 -0.170531,0.170532 -0.418578,0.170532 -0.242878,0 -0.418577,-0.170532 -0.170532,-0.175699 -0.170532,-0.423745 0,-0.242879 0.170532,-0.413411 0.175699,-0.175699 0.418577,-0.175699 z m -6.232157,0.03101 q 0.242878,0 0.418577,0.175699 0.1757,0.170532 0.1757,0.418578 0,0.242878 -0.1757,0.418578 -0.175699,0.170531 -0.418577,0.170531 -0.242879,0 -0.418578,-0.170531 -0.1757,-0.1757 -0.1757,-0.418578 0,-0.248046 0.1757,-0.418578 0.175699,-0.175699 0.418578,-0.175699 z m 3.100576,3.110911 q 0.248046,0 0.423745,0.1757 0.180867,0.175699 0.180867,0.418577 0,0.242879 -0.180867,0.41341 -0.175699,0.1757 -0.423745,0.1757 -0.242879,0 -0.418578,-0.1757 -0.175699,-0.170531 -0.175699,-0.41341 0,-0.248046 0.175699,-0.418577 0.175699,-0.1757 0.418578,-0.1757 z m 9.823659,-7.94781 q -0.449584,2.826692 -1.147214,4.816228 -0.692462,1.984369 -1.736322,3.648345 l -0.888832,-0.558104 q 1.136878,-1.607132 1.855178,-3.777535 0.723468,-2.175571 0.919838,-4.340806 z m 5.291649,7.937475 -1.028357,0.263549 Q 37.644226,44.162589 36.910423,41.966347 36.17662,39.764938 35.15343,37.878755 l 0.888832,-0.423746 q 2.180738,4.578518 2.78535,8.118342 z m 10.159555,-7.14166 -0.733803,0.30489 q -0.191203,-0.878497 -0.506428,-1.41593 l 0.775144,-0.320393 q 0.289387,0.578774 0.465087,1.431433 z m -0.320393,0.930173 -0.03101,2.030877 q -0.0155,1.028358 -0.10852,1.886184 -0.08785,0.857826 -0.310058,1.550288 -0.21704,0.692462 -0.485757,0.966346 -0.263549,0.273884 -0.578774,0.351399 -0.315225,0.08268 -0.749306,0.08268 -0.294554,0 -0.961178,-0.01034 l -0.268717,-1.028357 q 0.909502,0.07751 1.421097,0.07751 0.527098,0 0.831988,-1.142046 0.310058,-1.142045 0.310058,-2.78535 l -0.01033,-1.059364 h -2.625155 q -0.315225,2.278924 -1.271236,3.67935 -0.950843,1.400427 -2.63549,2.268589 l -0.676959,-0.795815 q 1.767329,-0.909502 2.557976,-2.02571 0.795814,-1.116207 1.074866,-3.095408 h -3.46231 v -0.950843 h 3.534657 v -1.968866 h 0.950843 v 1.968866 z m -0.857826,-0.506428 -0.728636,0.30489 q -0.196369,-0.8785 -0.506427,-1.421101 l 0.769976,-0.315225 q 0.294555,0.578774 0.465087,1.431432 z m 11.895875,2.950715 -3.679351,0.516763 0.58911,3.798205 -0.940508,0.149862 -0.604613,-3.808541 -3.989407,0.547768 -0.134359,-0.940508 3.953235,-0.558104 -0.19637,-1.452103 -3.06957,0.41341 -0.139526,-0.940508 3.06957,-0.43408 -0.253214,-1.663976 0.940508,-0.139526 0.253214,1.674311 3.131582,-0.423745 0.149861,0.950843 -3.131582,0.423745 0.211873,1.452103 3.684518,-0.516762 z m 10.753833,-1.13171 h -2.072218 v 1.736322 q 0,1.214393 -0.80615,2.325432 -0.800982,1.11104 -2.263421,1.684647 l -0.604612,-0.940508 q 1.281571,-0.325561 1.999872,-1.193722 0.7183,-0.873329 0.7183,-1.855178 v -1.756993 h -2.759513 v 2.284091 H 63.714903 V 40.674441 H 61.642685 V 39.71843 h 2.072218 v -2.263421 h 0.956011 v 2.263421 h 2.759513 v -2.263421 h 0.956011 v 2.263421 h 2.072218 z m 9.694466,-2.713004 q -1.291907,1.472773 -2.604484,2.604484 v 5.694724 H 76.597795 V 41.3514 q -1.958531,1.472774 -3.44164,2.041212 l -0.537433,-0.878496 q 3.493316,-1.260901 6.795429,-5.18313 z m 11.777023,0.08785 -0.728635,0.30489 q -0.19637,-0.873329 -0.506428,-1.415929 l 0.769977,-0.320393 q 0.294554,0.578774 0.465086,1.431432 z m -1.173051,0.423746 -0.728635,0.30489 q -0.19637,-0.878497 -0.511596,-1.41593 l 0.775144,-0.320393 q 0.294555,0.578774 0.465087,1.431433 z m 0.868161,7.007302 -0.837155,0.640785 q -1.514115,-2.139397 -3.513987,-3.296945 -0.873328,1.188554 -1.782831,1.968865 -0.904334,0.780312 -2.258253,1.550288 l -0.7183,-0.852658 q 4.227119,-2.036045 5.472517,-6.500875 h -4.935084 v -0.950843 l 5.808413,-0.01033 0.310057,0.315225 q -0.366901,1.881016 -1.343582,3.601836 2.222079,1.431433 3.798205,3.534657 z m 4.728377,-2.258253 q -0.563272,1.260901 -0.919838,2.65616 h -0.697629 q -0.847491,-1.607132 -0.847491,-3.958402 0,-1.963698 0.583942,-4.366645 l 1.028357,0.325561 q -0.676959,2.118727 -0.676959,4.077257 0,1.32808 0.206705,2.103224 h 0.02584 q 0.258382,-0.707965 0.475422,-1.090369 z m 4.774888,-4.738714 -0.12402,0.981849 q -0.68213,-0.124023 -1.865517,-0.124023 -0.981849,0 -2.253086,0.211873 l -0.118855,-0.997352 q 1.555456,-0.160197 2.35127,-0.160197 1.359088,0 2.010208,0.08785 z m 0.63562,5.947938 -0.23255,1.069699 q -1.48311,0.113688 -2.413278,0.113688 -1.539953,0 -2.087721,-0.253214 -0.547769,-0.253213 -0.547769,-1.13171 0,-0.439248 0.118856,-0.930173 l 0.992184,0.211873 q -0.170531,0.50126 -0.170531,0.7183 0,0.253214 0.263549,0.356566 0.263548,0.09819 1.136877,0.09819 0.69763,0 2.940383,-0.253214 z m 5.73606,1.891352 h -0.83715 v -3.06957 l -2.63549,0.84749 -0.37724,-0.821652 0.82165,-0.201538 v -5.219303 h 0.81649 v 4.96609 l 1.37459,-0.382405 V 37.16046 h 0.83715 z m 5.76707,-0.69763 -0.63562,0.676959 q -1.35908,-1.229895 -2.1549,-2.56831 -0.64078,1.142045 -2.23758,2.54764 l -0.58911,-0.687295 q 1.45727,-1.188554 2.30476,-2.594148 -0.98185,-1.974034 -1.33324,-4.366645 h -0.4961 v -0.775144 h 4.25296 v 0.738971 q -0.41341,2.485628 -1.39526,4.351142 0.85266,1.472773 2.28409,2.67683 z m -1.74666,-6.991799 h -2.09288 q 0.31522,1.896519 1.03352,3.477813 0.6873,-1.333248 1.05936,-3.477813 z m 8.30955,0.862994 q 1.41593,0.113688 2.23242,0.888832 0.81648,0.775144 0.81648,1.989536 0,0.7183 -0.31005,1.421097 -0.31006,0.702798 -0.95601,1.260901 -0.64079,0.552936 -1.82418,1.054196 l -0.68729,-0.971514 q 1.12654,-0.232543 1.96886,-0.961178 0.84233,-0.733803 0.84233,-1.91719 0,-0.816485 -0.69763,-1.312577 -0.69763,-0.50126 -1.56579,-0.516763 -0.42892,1.834508 -0.90951,2.992056 0.26355,0.41341 0.5271,0.687295 l -0.84232,0.573606 -0.20154,-0.242878 q -0.60978,0.940508 -1.39009,0.940508 -0.78031,0 -1.28674,-0.640786 -0.50126,-0.645953 -0.50126,-1.591629 0,-0.780312 0.3669,-1.498612 0.37207,-0.7183 1.03353,-1.229895 -0.31523,-0.868161 -0.59428,-2.211744 l 0.97152,-0.222208 q 0.10335,0.868161 0.45475,1.922357 0.74413,-0.315225 1.56579,-0.387572 0.26871,-1.162716 0.27905,-2.149733 l 1.03352,0.222208 q -0.12919,1.012855 -0.32556,1.901687 z m -1.20922,1.049028 q -0.51676,0.05684 -1.00252,0.330728 0.33073,0.909503 0.5271,1.333248 0.32039,-0.899167 0.47542,-1.663976 z m -0.96118,2.919709 q -0.41858,-0.800982 -0.85783,-2.030877 -0.75964,0.754473 -0.75964,1.819005 0,0.527097 0.19637,0.842323 0.20154,0.315225 0.49093,0.315225 0.22221,0 0.42891,-0.175699 0.21187,-0.1757 0.50126,-0.769977 z m 11.45146,-2.919709 q 0.72347,-0.242878 1.49344,-0.242878 0.99219,0 1.74149,0.676959 0.75448,0.676959 0.75448,1.63297 0,1.080034 -0.67179,1.839675 -0.6718,0.754473 -1.49862,0.992184 -0.82682,0.232544 -1.48827,0.232544 -0.96635,0 -1.57096,-0.439249 -0.59945,-0.439248 -0.59945,-1.21956 0,-0.60978 0.42892,-0.992184 0.42891,-0.382404 1.00768,-0.382404 0.72347,0 1.39526,0.454751 0.6718,0.449583 1.0387,1.193722 0.45992,-0.227376 0.72863,-0.656289 0.26872,-0.434081 0.26872,-0.930173 0,-0.707965 -0.55294,-1.074866 -0.55293,-0.366902 -1.60713,-0.366902 -1.10587,0 -2.1394,0.511595 -1.36425,1.229895 -2.02054,1.725988 l -0.69763,-0.78548 q 2.25309,-1.591629 4.36148,-3.886055 -1.32291,0.180867 -2.30993,0.180867 -0.42375,0 -0.86816,-0.03101 l -0.0517,-1.018022 q 0.44959,0.06718 1.00769,0.06718 1.33841,0 3.66901,-0.351399 l 0.10852,0.878497 -1.94819,1.968866 z m 1.13171,4.097928 q -0.20154,-0.408242 -0.63562,-0.728635 -0.43408,-0.320393 -0.85782,-0.320393 -0.22738,0 -0.37724,0.129191 -0.14986,0.124023 -0.14986,0.30489 0,0.299722 0.35656,0.52193 0.36174,0.21704 0.894,0.21704 0.40308,0 0.76998,-0.124023 z"
         id="path4" />
      <path
         d="m 32.424922,53.045121 q -1.359085,0.237711 -2.030877,0.258382 -0.888832,3.720691 -2.077386,5.767071 l -0.992184,-0.465086 q 1.04386,-1.157549 2.092889,-5.239974 -0.780312,0.05168 -1.467606,0.05168 l -0.170532,-1.038693 q 0.578774,0.06718 1.839675,0.06718 0.175699,-0.878496 0.263549,-1.736322 l 0.987017,0.211873 q -0.06201,0.7183 -0.242879,1.446935 0.754474,-0.07751 1.669144,-0.263549 z m 2.728507,0.625283 -0.253213,0.987017 q -0.909503,-0.330728 -2.010207,-0.330728 -0.728636,0 -1.229895,0.118855 l 0.222208,-0.997352 q 0.527098,-0.05168 1.007687,-0.05168 1.02319,0 2.26342,0.273884 z m 0.232544,5.575869 q -1.28674,0.06718 -1.999872,0.06718 -0.893999,0 -1.52445,-0.07751 -0.63045,-0.07751 -0.930173,-0.155029 -0.294554,-0.08268 -0.490924,-0.356566 -0.19637,-0.273884 -0.19637,-0.552936 0,-0.687294 0.527098,-1.777664 l 1.028358,0.232544 q -0.625283,0.893999 -0.625283,1.255733 0,0.170532 0.118855,0.263549 0.118856,0.08785 0.635618,0.165364 0.521931,0.07235 1.204057,0.07235 0.795815,0 2.253086,-0.170532 z m 7.420712,-6.402689 q 1.415929,0.113688 2.232414,0.888832 0.816485,0.775144 0.816485,1.989536 0,0.7183 -0.310057,1.421097 -0.310058,0.702797 -0.956011,1.260901 -0.640786,0.552936 -1.824172,1.054196 l -0.687295,-0.971514 q 1.126543,-0.232543 1.968866,-0.961178 0.842323,-0.733803 0.842323,-1.91719 0,-0.816485 -0.697629,-1.312577 -0.69763,-0.50126 -1.565791,-0.516763 -0.428913,1.834508 -0.909503,2.992056 0.263549,0.41341 0.527098,0.687294 l -0.842323,0.573607 -0.201537,-0.242878 q -0.60978,0.940508 -1.390092,0.940508 -0.780312,0 -1.286739,-0.640786 -0.50126,-0.645953 -0.50126,-1.591629 0,-0.780312 0.366902,-1.498612 0.372069,-0.7183 1.033525,-1.229895 -0.315225,-0.868161 -0.594277,-2.211744 l 0.971514,-0.222208 q 0.103352,0.868161 0.454751,1.922357 0.744138,-0.315225 1.565791,-0.387572 0.268716,-1.162716 0.279052,-2.149733 l 1.033525,0.222208 q -0.129191,1.012855 -0.32556,1.901687 z m -1.209225,1.049028 q -0.516763,0.05684 -1.00252,0.330728 0.330728,0.909502 0.527098,1.333248 0.320393,-0.899167 0.475422,-1.663976 z m -0.961179,2.919709 q -0.418577,-0.800982 -0.857826,-2.030877 -0.759641,0.754473 -0.759641,1.819004 0,0.527098 0.19637,0.842324 0.201537,0.315225 0.490925,0.315225 0.222207,0 0.428913,-0.175699 0.211872,-0.1757 0.501259,-0.769977 z M 57.20886,53.587722 h -1.648473 q -0.02584,0.07751 -0.08785,0.356566 -0.06201,0.273884 -0.144694,0.48059 h 1.395259 v 5.405337 h -0.806149 v -0.625283 h -1.746658 v 0.625283 h -0.800982 v -5.405337 h 1.090369 q 0.04134,-0.08268 0.242878,-0.837156 h -1.576126 v -0.485757 l -0.02067,-0.02584 -0.341064,1.049028 v 5.70506 h -0.806149 v -4.283962 q -0.232544,0.330728 -0.356567,0.454751 0.09819,0.294554 0.134359,0.475421 l -0.769977,0.253214 q -0.04134,-0.170532 -0.139526,-0.475422 h -0.728635 v 3.565663 h -0.785479 v -3.565663 h -1.333248 l -0.08268,-0.837155 h 0.39274 Q 48.93549,54.569571 49.26105,54.063144 48.604762,53.536046 47.886462,53.09163 l 0.43408,-0.666624 0.201538,0.134358 q 0.707965,-1.116207 1.13171,-2.294426 l 0.738971,0.356566 q -0.594277,1.348751 -1.245398,2.3306 0.490924,0.341063 0.558103,0.41341 0.299723,-0.444416 0.888832,-1.612299 l 0.707965,0.382404 q -0.878497,1.767328 -2.092889,3.281443 h 1.333248 q -0.175699,-0.516763 -0.361734,-0.82682 l 0.692462,-0.263549 q 0.206705,0.310057 0.408243,0.816485 0.821652,-1.178219 1.312577,-2.997224 l 0.702797,0.253214 q 0,0.134358 -0.118855,0.423745 h 4.030748 z m -1.291906,2.826692 v -1.229895 h -1.746658 v 1.229895 z m 0,2.030877 v -1.271236 h -1.746658 v 1.271236 z m 1.080034,-5.787742 h -0.800982 v -0.692462 h -4.066923 v 1.018023 h -0.800982 v -1.777664 h 2.444288 v -0.847491 h 0.878496 v 0.847491 h 2.346103 z m -8.030492,4.154772 q -0.124023,1.41593 -0.645954,2.594149 l -0.728635,-0.315225 q 0.511595,-1.069699 0.635618,-2.423617 z m 2.738842,2.211744 -0.759641,0.180867 Q 50.780333,57.7735 50.439269,56.941512 l 0.707965,-0.160197 q 0.41341,0.987017 0.558104,2.24275 z m 11.854536,-0.599444 q 0,0.620115 -0.346231,0.883664 -0.341064,0.263549 -1.043861,0.263549 l -0.645953,-0.0155 q -0.160197,0 -0.289387,0.01033 l -0.351399,-0.868161 q 0.656289,0.05168 1.11104,0.05168 0.516762,0 0.620115,-0.07235 0.10852,-0.07235 0.10852,-0.253213 v -7.937475 h 0.837156 z m 4.061754,-2.108392 -0.759641,0.372069 q -0.635618,-2.030877 -2.402946,-3.643177 l 0.754473,-0.397907 q 1.834508,1.663976 2.408114,3.669015 z m -6.201152,-3.302114 q -0.682126,2.232415 -2.201409,3.715524 l -0.656288,-0.547768 q 1.519282,-1.50378 2.149732,-3.524322 z m 16.045479,3.017894 q -0.811317,1.539953 -1.974033,2.423617 -1.157548,0.878497 -2.408114,0.878497 -1.121375,0 -1.808669,-0.651121 -0.687295,-0.651121 -0.687295,-1.539953 v -6.13914 h 0.930173 v 5.565534 q 0,1.844842 1.596797,1.844842 0.82682,0 1.76216,-0.661456 0.935341,-0.666624 1.658809,-2.185906 z m 10.572967,-3.575997 q -0.692462,0.05684 -1.100705,0.124023 -0.403075,0.06718 -1.038693,0.475421 -0.63045,0.403075 -1.142045,0.956011 -0.506428,0.552936 -0.769977,1.085202 -0.263549,0.527098 -0.263549,0.956011 0,0.857826 0.883665,1.514115 0.883664,0.651121 2.392611,0.888831 l -0.496092,0.950844 q -1.674311,-0.382405 -2.702669,-1.276404 -1.02319,-0.899167 -1.02319,-2.04638 0,-0.847491 0.532265,-1.710485 0.532266,-0.862993 1.436601,-1.503779 l -0.02067,-0.02584 q -2.878368,0.211872 -4.542344,0.211872 l -0.253214,-1.090369 q 0.759641,0.03617 1.483109,0.03617 2.501132,0 6.521545,-0.48059 z m 6.299339,1.565791 q 0.387572,-0.129191 1.15238,-0.129191 1.30741,0 2.278924,0.769976 0.971514,0.764809 0.971514,1.927525 0,0.940508 -0.775144,1.819005 -0.769977,0.873329 -1.999872,1.369421 l -0.547768,-0.909502 q 2.366773,-0.945676 2.366773,-2.201409 0,-0.527098 -0.330728,-0.966347 -0.330728,-0.444416 -0.862994,-0.620115 -0.676959,1.974034 -1.756993,2.868033 0.08785,0.294555 0.263549,0.578774 l -0.940508,0.403075 -0.149861,-0.382404 q -0.692462,0.444416 -1.545121,0.444416 -0.7183,0 -1.214392,-0.490925 -0.490925,-0.496092 -0.490925,-1.266068 0,-1.00252 0.713133,-1.80867 0.7183,-0.80615 1.912022,-1.204057 -0.01034,-0.351399 -0.01034,-1.080034 l -2.030877,0.242879 -0.113688,-0.950844 2.154901,-0.258381 0.07751,-1.297074 1.012855,0.06201 q -0.06718,0.382404 -0.124023,1.100705 l 3.121247,-0.37207 0.134358,0.961179 -3.286611,0.423745 z m 1.291906,0.878496 q -0.07235,-0.01033 -0.23771,-0.01033 -0.521931,0 -0.992185,0.09302 0.08785,1.142046 0.191202,1.839675 0.521931,-0.532265 1.038693,-1.922357 z m -1.886183,2.676831 q -0.248046,-1.353918 -0.294555,-2.382276 -0.744138,0.268717 -1.240231,0.816485 -0.496092,0.547768 -0.496092,1.152381 0,0.361734 0.248046,0.594277 0.248046,0.232543 0.640786,0.232543 0.490925,0 1.142046,-0.41341 z m 11.260256,-3.684518 q 0.72347,-0.242878 1.49344,-0.242878 0.99219,0 1.74149,0.676959 0.75448,0.676959 0.75448,1.63297 0,1.080034 -0.67179,1.839675 -0.67179,0.754473 -1.49861,0.992184 -0.82683,0.232543 -1.48828,0.232543 -0.96635,0 -1.57096,-0.439248 -0.59944,-0.439248 -0.59944,-1.21956 0,-0.60978 0.42891,-0.992184 0.42891,-0.382405 1.00769,-0.382405 0.72346,0 1.39525,0.454752 0.6718,0.449583 1.0387,1.193721 0.45992,-0.227375 0.72863,-0.656288 0.26872,-0.434081 0.26872,-0.930173 0,-0.707965 -0.55294,-1.074866 -0.55293,-0.366902 -1.60713,-0.366902 -1.10587,0 -2.1394,0.511595 -1.36425,1.229895 -2.02054,1.725988 l -0.69763,-0.78548 q 2.25309,-1.591629 4.36148,-3.886055 -1.32291,0.180867 -2.30993,0.180867 -0.42374,0 -0.86816,-0.03101 l -0.0517,-1.018022 q 0.44959,0.06718 1.00769,0.06718 1.33842,0 3.66902,-0.351399 l 0.10852,0.878497 -1.9482,1.968865 z m 1.13171,4.097928 q -0.20154,-0.408242 -0.63562,-0.728635 -0.43408,-0.320393 -0.85782,-0.320393 -0.22738,0 -0.37724,0.12919 -0.14986,0.124024 -0.14986,0.30489 0,0.299723 0.35656,0.521931 0.36174,0.21704 0.894,0.21704 0.40308,0 0.76998,-0.124023 z"
         id="path5" />
    </g>
  </g>
</svg>
